<svg id="Capa_1" data-name="Capa 1" xmlns="http://www.w3.org/2000/svg" viewBox="0 0 101.42 59.09"><path d="M37.34,7.54a.92.92,0,0,0-.28.14c-.23.18-.46.42-.75.42s-.62-.46-.58-.84a4.27,4.27,0,0,1,.4-1.06,3,3,0,0,0-.2-2.75.72.72,0,0,0-.29-.31.8.8,0,0,0-.46-.06A7.34,7.34,0,0,0,32.59,4a10.18,10.18,0,0,0-3.34,2.63c-.16.2-.43.43-.65.3a.54.54,0,0,1-.17-.47,10.68,10.68,0,0,1,.31-2.76c.06-.25.1-.55-.09-.71a.61.61,0,0,0-.53,0,2.91,2.91,0,0,0-1.38.88c-.16.17-.34.39-.57.36s-.35-.26-.45-.46A8.29,8.29,0,0,0,22.1,0a15.11,15.11,0,0,0-.46,2.37,7.25,7.25,0,0,0,.46,2.81c.08.22.17.49,0,.68s-.45.19-.7.18a3.21,3.21,0,0,0-1.66.4.56.56,0,0,0-.23.2c-.14.27.16.54.41.7a11,11,0,0,1,2.16,1.74.52.52,0,0,1,.2.45c0,.26-.41.28-.68.25a10.24,10.24,0,0,0-4.22.49c-.81.27-3.07.89-2.72,2.1a3,3,0,0,0,1.85,2,4.92,4.92,0,0,1,.81.37.91.91,0,0,1,.44.74c0,.53-.58.54-1,.58s-.59.2-.57.47a.58.58,0,0,0,.29.41,4.93,4.93,0,0,0,3.26.94,3.69,3.69,0,0,1,1.1.06,1.46,1.46,0,0,1,.9.6c.39.67-.16,1-.57,1.44-.2.21-.32.58-.1.78a.73.73,0,0,0,.38.14,11.68,11.68,0,0,0,7.85-1.79c.18-.12.39-.32.32-.53.14.18.42.16.64.12a11.35,11.35,0,0,0,6.77-4.28.7.7,0,0,0,.18-.4c0-.28-.33-.45-.61-.46a3,3,0,0,1-.84,0c-1.73-.54.58-2.59,1-3.08a4.36,4.36,0,0,0,1.06-2.36.53.53,0,0,0,0-.39A.44.44,0,0,0,37.34,7.54Z" fill="#4cb343"/><path d="M2.28,39.27v5.4H7.85v1.82H2.28v5.67H9.14V54H0V37.44H9l-.26,1.83Z" fill="#615db5"/><path d="M15.14,39.58v1.75h3.08L18,43H15.14V54h-2.2V43H10.68V41.33h2.26V39.6c0-2.11,1.39-3.62,4-3.62a7,7,0,0,1,3,.65l-.7,1.61a5.38,5.38,0,0,0-2.2-.48C15.62,37.76,15.14,38.36,15.14,39.58Z" fill="#615db5"/><path d="M23.18,39.58v1.75h3.08L26,43H23.18V54H21V43H18.72V41.33H21V39.6c0-2.11,1.39-3.62,4-3.62a7,7,0,0,1,3,.65l-.7,1.61a5.38,5.38,0,0,0-2.2-.48C23.66,37.76,23.18,38.36,23.18,39.58Z" fill="#615db5"/><path d="M43.63,42.41l-1.08,1.44a4,4,0,0,0-2.69-1c-2,0-3.24,1.56-3.24,4.85s1.25,4.68,3.24,4.68a4.19,4.19,0,0,0,2.72-1l1.05,1.51a6,6,0,0,1-3.86,1.39c-3.41,0-5.52-2.42-5.52-6.51S36.33,41,39.77,41A5.62,5.62,0,0,1,43.63,42.41Z" fill="#615db5"/><path d="M49.27,36.77a1.55,1.55,0,1,1-1.56-1.51A1.47,1.47,0,0,1,49.27,36.77ZM46.63,54V41.33h2.21V54Z" fill="#615db5"/><path d="M62.9,48.41H54.84c.22,2.93,1.58,4.06,3.41,4.06a5.38,5.38,0,0,0,3.29-1.1l1,1.32a6.93,6.93,0,0,1-4.42,1.58c-3.53,0-5.59-2.47-5.59-6.48s2-6.75,5.25-6.75S63,43.42,63,47.29C63,47.72,62.93,48.13,62.9,48.41Zm-2.13-1.77c0-2.47-1-3.84-3-3.84-1.68,0-2.78,1.17-2.95,4h5.93Z" fill="#615db5"/><path d="M76.22,44.91V54H74V45.22c0-1.9-.77-2.45-2-2.45-1.41,0-2.37.89-3.21,2.24v9H66.6V41.33h1.89l.2,1.87A4.58,4.58,0,0,1,72.55,41C74.88,41,76.22,42.51,76.22,44.91Z" fill="#615db5"/><path d="M89.14,42.41l-1.08,1.44a4,4,0,0,0-2.69-1c-2,0-3.24,1.56-3.24,4.85s1.24,4.68,3.24,4.68a4.16,4.16,0,0,0,2.71-1l1.06,1.51a6,6,0,0,1-3.87,1.39c-3.41,0-5.52-2.42-5.52-6.51S81.84,41,85.27,41A5.66,5.66,0,0,1,89.14,42.41Z" fill="#615db5"/><path d="M91.32,59.09l-.24-1.72c2.57-.44,3.29-1.42,4-3.39h-.75L90.09,41.33h2.36l3.38,11,3.31-11h2.28L97.2,54.05C96.31,56.74,94.82,58.71,91.32,59.09Z" fill="#615db5"/><path d="M15.36,25.25V33H13.08V.41h2.28v23h7V16.46H24.6V33H22.32V25.25Z" fill="#615db5"/><path d="M29.28,54V20.35h2.21V54Z" fill="#615db5"/><path d="M42.55,21.31a3.33,3.33,0,0,1,2.23,3.19c0,2.5-1.8,4.3-4.82,4.3a5.06,5.06,0,0,1-1.61-.24,1.51,1.51,0,0,0-.62,1.17c0,.58.36,1,1.65,1h2c2.59,0,4.32,1.49,4.32,3.5,0,2.45-2,3.84-5.93,3.84-4.13,0-5.42-1.27-5.42-3.84h2c0,1.44.65,2.11,3.43,2.11s3.7-.69,3.7-2-1-1.8-2.55-1.8H39c-2.26,0-3.26-1.13-3.26-2.4A2.76,2.76,0,0,1,37.08,28a3.6,3.6,0,0,1-2.14-3.5c0-2.59,2.09-4.42,4.87-4.42a10.82,10.82,0,0,0,5.79-1.13l.65,2A12.57,12.57,0,0,1,42.55,21.31ZM37.2,24.48a2.56,2.56,0,0,0,2.66,2.86c1.73,0,2.67-1.06,2.67-2.89s-.92-2.8-2.72-2.8A2.53,2.53,0,0,0,37.2,24.48Z" fill="#615db5"/><path d="M58.15,23.93V33H55.94V24.24c0-1.9-.81-2.45-2-2.45-1.37,0-2.36.89-3.2,2.21v9h-2.2V15.29l2.2-.24V22.1a4.55,4.55,0,0,1,3.75-2C56.78,20.06,58.15,21.55,58.15,23.93Z" fill="#615db5"/><path d="M1.3,26.93l.7.67a2.59,2.59,0,0,0-.67,1.81c0,1.19.9,2.38,3.33,2.38S8,31,8,29.53A3.05,3.05,0,0,0,7.62,28H5.14v1.47l-.92.13V26.84h4a5.15,5.15,0,0,1,.73,2.78C8.94,31.67,7.52,33,4.66,33S.39,31.3.39,29.44A3.59,3.59,0,0,1,1.3,26.93Z" fill="#4cb343"/><path d="M2.41,21.58l1.08.2a1.93,1.93,0,0,0-.07.55c0,.8.56,1.25,1.77,1.51H8.8V25H2.48V24l1.28-.11A1.8,1.8,0,0,1,2.34,22.2,2.56,2.56,0,0,1,2.41,21.58Z" fill="#4cb343"/><path d="M6,15.69v4c1.46-.11,2-.8,2-1.71a2.62,2.62,0,0,0-.55-1.64l.66-.48a3.45,3.45,0,0,1,.79,2.21c0,1.76-1.23,2.79-3.23,2.79s-3.37-1-3.37-2.62,1.18-2.61,3.11-2.61A4.56,4.56,0,0,1,6,15.69Zm-.89,1.06c-1.23,0-1.92.5-1.92,1.49s.59,1.39,2,1.48v-3Z" fill="#4cb343"/><path d="M6,9.09v4c1.46-.11,2-.79,2-1.71a2.62,2.62,0,0,0-.55-1.64l.66-.48a3.45,3.45,0,0,1,.79,2.21c0,1.76-1.23,2.79-3.23,2.79s-3.37-1-3.37-2.62S3.52,9.06,5.45,9.06A4.56,4.56,0,0,1,6,9.09Zm-.89,1.06c-1.23,0-1.92.5-1.92,1.49,0,.84.59,1.39,2,1.48v-3Z" fill="#4cb343"/><path d="M4.27,2.43H8.8v1.1H4.42c-.94,0-1.22.38-1.22,1a1.91,1.91,0,0,0,1.11,1.6H8.8V7.24H2.48v-1l.94-.1A2.28,2.28,0,0,1,2.34,4.26,1.73,1.73,0,0,1,4.27,2.43Z" fill="#4cb343"/></svg>